<svg width="120" height="40" viewBox="0 0 120 40" fill="none" xmlns="http://www.w3.org/2000/svg">
  <path d="M20 8C13.373 8 8 13.373 8 20C8 26.627 13.373 32 20 32C26.627 32 32 26.627 32 20C32 13.373 26.627 8 20 8ZM20 28C15.589 28 12 24.411 12 20C12 15.589 15.589 12 20 12C24.411 12 28 15.589 28 20C28 24.411 24.411 28 20 28Z" fill="#22C55E"/>
  <path d="M42.336 28V12.8H46.56C48.304 12.8 49.696 13.248 50.736 14.144C51.776 15.04 52.296 16.272 52.296 17.84C52.296 19.408 51.776 20.64 50.736 21.536C49.696 22.432 48.304 22.88 46.56 22.88H44.736V28H42.336ZM44.736 20.8H46.56C47.456 20.8 48.136 20.576 48.6 20.128C49.064 19.68 49.296 18.976 49.296 18.016C49.296 17.056 49.064 16.352 48.6 15.904C48.136 15.456 47.456 15.232 46.56 15.232H44.736V20.8ZM54.2109 28V12.8H56.6109V19.36H62.6909V12.8H65.0909V28H62.6909V21.44H56.6109V28H54.2109ZM73.3359 28.24C71.9759 28.24 70.8399 27.952 69.9279 27.376C69.0159 26.8 68.3359 25.984 67.8879 24.928C67.4399 23.872 67.2159 22.64 67.2159 21.232C67.2159 19.824 67.4399 18.592 67.8879 17.536C68.3359 16.48 69.0159 15.664 69.9279 15.088C70.8399 14.512 71.9759 14.224 73.3359 14.224C74.6959 14.224 75.8319 14.512 76.7439 15.088C77.6559 15.664 78.3359 16.48 78.7839 17.536C79.2319 18.592 79.4559 19.824 79.4559 21.232C79.4559 22.64 79.2319 23.872 78.7839 24.928C78.3359 25.984 77.6559 26.8 76.7439 27.376C75.8319 27.952 74.6959 28.24 73.3359 28.24ZM73.3359 26.16C74.3599 26.16 75.1359 25.776 75.6639 25.008C76.1919 24.24 76.4559 22.992 76.4559 21.264C76.4559 19.536 76.1919 18.288 75.6639 17.52C75.1359 16.752 74.3599 16.368 73.3359 16.368C72.3119 16.368 71.5359 16.752 71.0079 17.52C70.4799 18.288 70.2159 19.536 70.2159 21.264C70.2159 22.992 70.4799 24.24 71.0079 25.008C71.5359 25.776 72.3119 26.16 73.3359 26.16ZM81.8859 28V12.8H84.2859V19.36H90.3659V12.8H92.7659V28H90.3659V21.44H84.2859V28H81.8859ZM95.0109 28V12.8H97.4109V25.568H103.651V28H95.0109ZM111.896 28.24C110.536 28.24 109.4 27.952 108.488 27.376C107.576 26.8 106.896 25.984 106.448 24.928C106 23.872 105.776 22.64 105.776 21.232C105.776 19.824 106 18.592 106.448 17.536C106.896 16.48 107.576 15.664 108.488 15.088C109.4 14.512 110.536 14.224 111.896 14.224C113.256 14.224 114.392 14.512 115.304 15.088C116.216 15.664 116.896 16.48 117.344 17.536C117.792 18.592 118.016 19.824 118.016 21.232C118.016 22.64 117.792 23.872 117.344 24.928C116.896 25.984 116.216 26.8 115.304 27.376C114.392 27.952 113.256 28.24 111.896 28.24ZM111.896 26.16C112.92 26.16 113.696 25.776 114.224 25.008C114.752 24.24 115.016 22.992 115.016 21.264C115.016 19.536 114.752 18.288 114.224 17.52C113.696 16.752 112.92 16.368 111.896 16.368C110.872 16.368 110.096 16.752 109.568 17.52C109.04 18.288 108.776 19.536 108.776 21.264C108.776 22.992 109.04 24.24 109.568 25.008C110.096 25.776 110.872 26.16 111.896 26.16Z" fill="#22C55E"/>
</svg>
